
<svg width="32" height="32" viewBox="0 0 32 32" xmlns="http://www.w3.org/2000/svg">
  <g fill="none">
    <circle fill="#E84142" cx="16" cy="16" r="16"/>
    <path d="M20.491 15.767a.847.847 0 01-.85-.845c0-.466.38-.845.85-.845.469 0 .849.38.849.845a.847.847 0 01-.85.845zm-8.983 0a.847.847 0 01-.849-.845c0-.466.38-.845.849-.845.47 0 .85.38.85.845a.847.847 0 01-.85.845zm-1.192 1.598l-.5.872a.19.19 0 00.165.285h9.038a.19.19 0 00.165-.285l-.5-.872a.379.379 0 00-.33-.19h-8.208a.379.379 0 00-.33.19zm6.139-3.123h.677c.26 0 .473.212.473.471v.201a.472.472 0 01-.473.47h-.677a.472.472 0 01-.471-.47v-.201c0-.26.212-.47.471-.47zm-2.038 0h.677c.26 0 .471.212.471.471v.201a.472.472 0 01-.471.47h-.677a.472.472 0 01-.472-.47v-.201c0-.26.212-.47.472-.47zm-4.991-3.353a.19.19 0 00-.165.284l5.22 9.038a.38.38 0 00.33.189h1.415a.38.38 0 00.33-.189l5.22-9.038a.19.19 0 00-.165-.284H9.426z" fill="#FFF"/>
  </g>
</svg>
