<svg width="130" height="32" viewBox="0 0 130 32" fill="none" xmlns="http://www.w3.org/2000/svg">
<path d="M37.0085 7.08805C35.3061 3.48279 31.8333 0.988081 27.919 0.693094C26.0011 0.514233 24.022 0.83992 22.2929 1.7142C21.1318 2.29217 20.0984 3.09437 19.2299 4.05008C17.4383 2.01053 14.9059 0.677076 12.174 0.538258C6.43085 0.192549 1.48044 3.92327 0.274087 9.71624C-0.458766 13.1854 0.340589 16.808 1.92733 19.8593C3.51141 22.8692 5.82303 25.5455 8.83025 27.1178C10.9291 28.143 12.8962 25.5428 11.3613 23.7248C10.8719 23.1749 10.421 22.5902 10.01 21.9656C9.62828 21.3863 9.28513 20.7776 8.9739 20.1543C8.10937 18.3763 7.4643 16.3742 7.33661 14.4027C7.2608 13.1493 7.4244 12.0695 7.94311 10.979C8.4339 9.96184 9.22926 9.08756 10.2733 8.67645C11.8973 8.05844 13.5918 8.3908 14.8261 9.72559C15.6281 10.5545 15.9952 11.7144 16.4048 12.7849C16.4354 12.8623 16.4687 12.9371 16.5033 13.0105C17.3186 15.5346 21.056 15.5986 21.7543 12.7275C21.7756 12.6301 21.7968 12.5313 21.8194 12.4312C21.8234 12.4152 21.8274 12.4005 21.8314 12.3845C21.8354 12.3685 21.8381 12.3524 21.8421 12.3351C21.9019 12.0788 21.9711 11.8225 22.0602 11.5836C22.3382 10.8134 22.801 10.07 23.357 9.50268C24.1949 8.64708 25.2629 8.13052 26.432 8.24531C27.0864 8.28268 27.8246 8.46154 28.3566 8.75119C31.3412 10.3756 31.03 14.6443 29.7505 17.4567C28.8514 19.4268 27.4123 21.0753 25.8162 22.4995C25.4212 22.8505 24.9703 23.2376 24.562 23.5646C22.6906 25.0236 22.2118 27.7852 23.6908 29.7647C25.2776 31.9404 28.4377 32.0459 30.2532 30.1104C30.6097 29.7567 30.9542 29.3896 31.2933 29.0199C34.7182 25.1811 37.8305 19.4829 38.3146 14.2318C38.5141 11.7772 38.0792 9.32382 37.0059 7.08939L37.0085 7.08805Z" fill="url(#paint0_radial_3029_563)"/>
<path d="M60.8654 9.94581C62.2699 9.94581 63.3978 10.3956 64.2477 11.2953C65.0976 12.1949 65.5219 13.3922 65.5219 14.8885V22.2192H61.8456V15.1995C61.8456 14.5949 61.694 14.117 61.3921 13.7673C61.0902 13.4176 60.6526 13.2414 60.0807 13.2414C59.4755 13.2414 59.006 13.4403 58.6721 13.838C58.337 14.2358 58.1694 14.7857 58.1694 15.4852V22.2192H54.4932V15.1995C54.4932 14.5949 54.3415 14.117 54.0396 13.7673C53.7377 13.4176 53.3001 13.2414 52.7282 13.2414C52.123 13.2414 51.6535 13.4403 51.3197 13.838C50.9845 14.2358 50.8169 14.7857 50.8169 15.4852V22.2192H47.1407V10.2795H50.8169V11.378C51.4873 10.4223 52.5819 9.94581 54.1008 9.94581C55.5226 9.94581 56.592 10.4717 57.3115 11.5222C58.063 10.4717 59.2481 9.94581 60.8654 9.94581Z" fill="#2E628E"/>
<path d="M78.4113 20.7269C77.1531 21.9442 75.6169 22.5542 73.804 22.5542C71.9912 22.5542 70.455 21.9455 69.1968 20.7269C67.9386 19.5096 67.3095 18.0173 67.3095 16.25C67.3095 14.4828 67.9386 12.9905 69.1968 11.7731C70.455 10.5558 71.9912 9.94716 73.804 9.94716C75.6169 9.94716 77.1531 10.5558 78.4113 11.7731C79.6695 12.9905 80.2986 14.4828 80.2986 16.25C80.2986 18.0173 79.6695 19.5096 78.4113 20.7269ZM71.7944 18.2789C72.333 18.8048 73.0034 19.0664 73.804 19.0664C74.6047 19.0664 75.2738 18.8035 75.8137 18.2789C76.3524 17.753 76.6224 17.0776 76.6224 16.2487C76.6224 15.4198 76.3524 14.7444 75.8137 14.2185C75.2751 13.6926 74.6047 13.4309 73.804 13.4309C73.0034 13.4309 72.333 13.6939 71.7944 14.2185C71.2557 14.743 70.9857 15.4211 70.9857 16.2487C70.9857 17.0763 71.2557 17.753 71.7944 18.2789Z" fill="#2E628E"/>
<path d="M85.8409 22.2205H81.9346V10.2154H85.6454V13.1092C86.2346 10.8948 87.7828 9.91377 89.2578 9.91377C89.7486 9.91377 90.2899 9.93914 90.9536 10.2408L89.9959 14.0156C89.1846 13.7139 88.5954 13.7139 88.227 13.7139C86.7533 13.7139 85.8436 14.5695 85.8436 18.092V22.2218L85.8409 22.2205Z" fill="#2E628E"/>
<path d="M100.694 10.2795H104.37V22.2192H100.694V20.8056C100.229 22.0069 98.6107 22.5528 97.0426 22.5528C95.4744 22.5528 94.0446 21.9442 92.9008 20.7255C91.757 19.5082 91.185 18.0159 91.185 16.2487C91.185 14.4814 91.757 12.9891 92.9008 11.7718C94.0446 10.5545 95.4252 9.91778 97.0426 9.94581C99.8303 9.99386 100.761 11.3286 100.694 11.996V10.2795ZM95.6699 18.3736C96.2086 18.8995 96.9109 19.1612 97.7781 19.1612C98.6453 19.1612 99.3462 18.8982 99.8862 18.3736C100.426 17.8491 100.695 17.1403 100.695 16.2487C100.695 15.357 100.425 14.6483 99.8862 14.1237C99.3475 13.5991 98.6439 13.3362 97.7781 13.3362C96.9122 13.3362 96.2099 13.5991 95.6699 14.1237C95.1313 14.6496 94.8613 15.357 94.8613 16.2487C94.8613 17.1403 95.1313 17.8491 95.6699 18.3736Z" fill="#2E628E"/>
<path d="M107.087 22.2192V4.78821H110.763V22.2192H107.087Z" fill="#2E628E"/>
<path d="M116.921 8.59634C116.488 9.01813 115.969 9.22903 115.365 9.22903C114.761 9.22903 114.241 9.01813 113.809 8.59634C113.375 8.17455 113.16 7.66866 113.16 7.08002C113.16 6.49138 113.377 5.9855 113.809 5.56371C114.241 5.14192 114.76 4.93102 115.365 4.93102C115.97 4.93102 116.488 5.14192 116.921 5.56371C117.354 5.9855 117.57 6.49138 117.57 7.08002C117.57 7.66866 117.354 8.17455 116.921 8.59634ZM113.527 22.2192V10.2795H117.203V22.2192H113.527Z" fill="#2E628E"/>
<path d="M123.384 13.766C123.384 14.0049 123.593 14.1998 124.009 14.3506C124.425 14.5014 124.928 14.6536 125.516 14.8044C126.104 14.9553 126.692 15.1502 127.281 15.3891C127.869 15.628 128.372 16.0218 128.788 16.5704C129.204 17.119 129.413 17.8077 129.413 18.6353C129.413 19.9247 128.922 20.9004 127.942 21.5598C126.962 22.2205 125.753 22.5502 124.315 22.5502C121.733 22.5502 119.978 21.6038 119.047 19.7084L122.232 17.9412C122.559 18.8809 123.252 19.3494 124.315 19.3494C125.197 19.3494 125.638 19.1024 125.638 18.6086C125.638 18.3697 125.43 18.1708 125.013 18.0119C124.597 17.8531 124.094 17.6983 123.506 17.5461C122.918 17.3953 122.331 17.1964 121.741 16.9494C121.154 16.7025 120.651 16.3168 120.234 15.7908C119.818 15.2649 119.609 14.6202 119.609 13.8567C119.609 12.6154 120.071 11.6517 120.994 10.9669C121.917 10.2822 123.057 9.94049 124.412 9.94049C125.426 9.94049 126.349 10.1594 127.181 10.5972C128.014 11.035 128.684 11.6677 129.191 12.4953L126.055 14.1424C125.662 13.4416 125.114 13.0919 124.412 13.0919C123.71 13.0919 123.383 13.3148 123.383 13.7606L123.384 13.766Z" fill="#2E628E"/>
<defs>
<radialGradient id="paint0_radial_3029_563" cx="0" cy="0" r="1" gradientUnits="userSpaceOnUse" gradientTransform="translate(26.4158 27.792) rotate(-131.432) scale(31.8378 48.3252)">
<stop stop-color="#33FFCC"/>
<stop offset="1" stop-color="#0077FF"/>
</radialGradient>
</defs>
</svg>
